{
	"asset":{
		"generator":"Khronos glTF Blender I/O v5.1.19",
		"version":"2.0"
	},
	"extensionsUsed":[
		"KHR_materials_clearcoat",
		"KHR_materials_specular"
	],
	"scene":0,
	"scenes":[
		{
			"name":"Scene",
			"nodes":[
				2,
				65
			]
		}
	],
	"nodes":[
		{
			"mesh":0,
			"name":"Object_2",
			"scale":[
				0.3839453458786011,
				0.3839453458786011,
				0.3839453458786011
			],
			"translation":[
				0,
				0,
				0.316948801279068
			]
		},
		{
			"children":[
				0
			],
			"name":"Stam.obj.cleaner.materialmerger.gles"
		},
		{
			"children":[
				1
			],
			"name":"log",
			"rotation":[
				-0.70710688829422,
				0,
				0,
				0.7071066498756409
			]
		},
		{
			"name":"Bone.025.L_1",
			"rotation":[
				-0.06054991856217384,
				-0.006917019374668598,
				-0.00270217121578753,
				0.9981375336647034
			],
			"scale":[
				1,
				0.9999998807907104,
				1.0000001192092896
			],
			"translation":[
				-2.384185791015625e-07,
				0.3595653772354126,
				-5.476176738739014e-07
			]
		},
		{
			"children":[
				3
			],
			"name":"Bone.024.L_2",
			"rotation":[
				-0.7045426964759827,
				0.0023412457667291164,
				-0.03400299325585365,
				0.7088426947593689
			],
			"scale":[
				1,
				0.9999999403953552,
				0.9999997615814209
			],
			"translation":[
				-1.7136335372924805e-07,
				0.7074281573295593,
				3.2782554626464844e-07
			]
		},
		{
			"children":[
				4
			],
			"name":"Bone.023.L_3",
			"rotation":[
				0.025104770436882973,
				-0.0018174400320276618,
				0.029764138162136078,
				0.9992400407791138
			],
			"scale":[
				0.9999999403953552,
				0.9999998211860657,
				0.9999999403953552
			],
			"translation":[
				2.9802322387695312e-08,
				0.6899890899658203,
				-4.6193599700927734e-07
			]
		},
		{
			"children":[
				5
			],
			"name":"Bone.022.L_4",
			"rotation":[
				0.2051239162683487,
				0.005937368143349886,
				-0.020536551252007484,
				0.9785025715827942
			],
			"scale":[
				0.9999998807907104,
				0.9999999403953552,
				0.9999999403953552
			],
			"translation":[
				-2.9802322387695312e-08,
				0.5087975263595581,
				2.8312206268310547e-07
			]
		},
		{
			"children":[
				6
			],
			"name":"Bone.006.L_5",
			"rotation":[
				0.15467171370983124,
				0.07650385051965714,
				0.012031667865812778,
				0.9849259853363037
			],
			"scale":[
				0.9999999403953552,
				1,
				0.9999999403953552
			],
			"translation":[
				6.705522537231445e-08,
				0.6801788210868835,
				6.407499313354492e-07
			]
		},
		{
			"children":[
				7
			],
			"name":"Bone.005.L_6",
			"rotation":[
				-0.4932490289211273,
				-0.5127242803573608,
				0.4794676899909973,
				0.513741135597229
			],
			"scale":[
				1,
				1.000000238418579,
				1.0000001192092896
			],
			"translation":[
				-2.2351741790771484e-08,
				0.7103649377822876,
				2.1420419216156006e-07
			]
		},
		{
			"children":[
				8
			],
			"name":"Bone.004.L_7",
			"rotation":[
				-0.005103324074298143,
				0.017673294991254807,
				-0.6032860279083252,
				0.7973127365112305
			],
			"scale":[
				1,
				0.9999999403953552,
				1
			],
			"translation":[
				2.9067450668662786e-08,
				1.1780221462249756,
				2.2351741790771484e-07
			]
		},
		{
			"children":[
				9
			],
			"name":"Bone.003.L_8",
			"rotation":[
				0.07168656587600708,
				0.00014244162593968213,
				-0.0032765057403594255,
				0.9974218010902405
			],
			"scale":[
				1,
				1.0000001192092896,
				1
			],
			"translation":[
				6.705522537231445e-08,
				1.7391966581344604,
				-4.6566128730773926e-08
			]
		},
		{
			"children":[
				10
			],
			"name":"Bone.002.L_9",
			"rotation":[
				-0.08809687942266464,
				-0.00027148472145199776,
				0.009945306926965714,
				0.9960622191429138
			],
			"scale":[
				0.9999998807907104,
				0.9999999403953552,
				1
			],
			"translation":[
				2.2351741790771484e-08,
				0.8511322140693665,
				-3.166496753692627e-08
			]
		},
		{
			"name":"Bone.012.L_10",
			"rotation":[
				0.22904643416404724,
				-0.023190679028630257,
				-0.012483425438404083,
				0.9730591177940369
			],
			"scale":[
				1,
				1.0000001192092896,
				1
			],
			"translation":[
				2.980232238769531e-07,
				0.25025051832199097,
				1.4901161193847656e-07
			]
		},
		{
			"children":[
				12
			],
			"name":"Bone.011.L_11",
			"rotation":[
				0.4785144329071045,
				-0.05961718037724495,
				0.02580823376774788,
				0.8756732940673828
			],
			"scale":[
				1,
				1,
				0.9999999403953552
			],
			"translation":[
				1.1920928955078125e-07,
				0.28842759132385254,
				1.6391277313232422e-07
			]
		},
		{
			"children":[
				13
			],
			"name":"Bone.010.L_12",
			"rotation":[
				-0.6906129717826843,
				0.04711567983031273,
				0.13620011508464813,
				0.7087195515632629
			],
			"translation":[
				-6.854534149169922e-07,
				0.7384018898010254,
				-2.5331974029541016e-07
			]
		},
		{
			"name":"Bone.015.L_13",
			"rotation":[
				-0.07954201102256775,
				0.014429592527449131,
				0.22982348501682281,
				0.969869077205658
			],
			"scale":[
				0.9999998807907104,
				1.0000001192092896,
				1
			],
			"translation":[
				2.5331974029541016e-07,
				0.27870893478393555,
				2.5331974029541016e-07
			]
		},
		{
			"children":[
				15
			],
			"name":"Bone.014.L_14",
			"rotation":[
				-0.04310036450624466,
				-0.011285697109997272,
				0.12158302217721939,
				0.9915808439254761
			],
			"scale":[
				0.9999999403953552,
				1,
				1.0000001192092896
			],
			"translation":[
				3.8743019104003906e-07,
				0.29704493284225464,
				-8.940696716308594e-08
			]
		},
		{
			"children":[
				16
			],
			"name":"Bone.013.L_15",
			"rotation":[
				0.13974761962890625,
				0.03043302334845066,
				-0.05106614530086517,
				0.9884010553359985
			],
			"translation":[
				-1.1473894119262695e-06,
				0.7384023666381836,
				-4.023313522338867e-07
			]
		},
		{
			"name":"Bone.018.L_16",
			"rotation":[
				-0.011508919298648834,
				0.004386269021779299,
				0.24072282016277313,
				0.970515787601471
			],
			"scale":[
				1.0000001192092896,
				1,
				0.9999998807907104
			],
			"translation":[
				5.960464477539063e-08,
				0.3386061489582062,
				2.086162567138672e-07
			]
		},
		{
			"children":[
				18
			],
			"name":"Bone.017.L_17",
			"rotation":[
				0.2681591510772705,
				0.04283634200692177,
				0.08555874973535538,
				0.9586111903190613
			],
			"scale":[
				1,
				0.9999997615814209,
				1
			],
			"translation":[
				-9.08970832824707e-07,
				0.3277028501033783,
				-8.940696716308594e-08
			]
		},
		{
			"children":[
				19
			],
			"name":"Bone.016.L_18",
			"rotation":[
				-0.19756387174129486,
				-0.030006220564246178,
				-0.018702680245041847,
				0.9796521663665771
			],
			"scale":[
				1,
				1,
				1.0000001192092896
			],
			"translation":[
				8.940696716308594e-08,
				0.7384021282196045,
				-4.6193599700927734e-07
			]
		},
		{
			"name":"Bone.021.L_19",
			"rotation":[
				-0.016623632982373238,
				0.010701973922550678,
				0.22908398509025574,
				0.9732058644294739
			],
			"scale":[
				0.9999999403953552,
				1,
				0.9999998807907104
			],
			"translation":[
				6.556510925292969e-07,
				0.23787185549736023,
				8.940696716308594e-08
			]
		},
		{
			"children":[
				21
			],
			"name":"Bone.020.L_20",
			"rotation":[
				-0.35515329241752625,
				-0.011978358030319214,
				0.18967129290103912,
				0.9152854681015015
			],
			"translation":[
				-2.682209014892578e-07,
				0.3956853151321411,
				-2.682209014892578e-07
			]
		},
		{
			"children":[
				22
			],
			"name":"Bone.019.L_21",
			"rotation":[
				0.40991243720054626,
				0.03269418701529503,
				-0.05006673187017441,
				0.9101627469062805
			],
			"scale":[
				1,
				0.9999998807907104,
				1
			],
			"translation":[
				-1.1622905731201172e-06,
				0.7384021282196045,
				-2.8312206268310547e-07
			]
		},
		{
			"children":[
				14,
				17,
				20,
				23
			],
			"name":"Bone.009.L_22",
			"rotation":[
				0.03624797239899635,
				0.012024933472275734,
				0.06582440435886383,
				0.9971001148223877
			],
			"scale":[
				1,
				0.9999998807907104,
				0.9999999403953552
			],
			"translation":[
				6.705522537231445e-07,
				1.4690951108932495,
				-1.30385160446167e-07
			]
		},
		{
			"children":[
				24
			],
			"name":"Bone.008.L_23",
			"rotation":[
				-0.17694328725337982,
				-0.04938776418566704,
				0.19016285240650177,
				0.9644117951393127
			],
			"scale":[
				1,
				1,
				0.9999999403953552
			],
			"translation":[
				2.9802322387695312e-08,
				1.5771281719207764,
				-2.2351741790771484e-08
			]
		},
		{
			"children":[
				25
			],
			"name":"Bone.007.L_24",
			"rotation":[
				-0.034088391810655594,
				-0.008146032691001892,
				-0.673639178276062,
				0.7382289171218872
			],
			"scale":[
				0.9999999403953552,
				0.9999998807907104,
				1
			],
			"translation":[
				5.21540641784668e-08,
				0.8511322140693665,
				-3.5390257835388184e-08
			]
		},
		{
			"children":[
				11,
				26
			],
			"name":"Bone.001.L_25",
			"rotation":[
				-0.9966757297515869,
				-0.006668101064860821,
				-0.0001370426471112296,
				0.08119769394397736
			],
			"scale":[
				1,
				0.9999999403953552,
				1.000003695487976
			],
			"translation":[
				0.002083279425278306,
				1.8069332838058472,
				-0.05261525884270668
			]
		},
		{
			"name":"Bone.026.L_26",
			"rotation":[
				0.1916830986738205,
				0.682281494140625,
				0.18872414529323578,
				0.6798034906387329
			],
			"scale":[
				0.9999998807907104,
				0.9999999403953552,
				0.9999999403953552
			],
			"translation":[
				0.0020833055023103952,
				1.8069332838058472,
				-0.05261513590812683
			]
		},
		{
			"name":"Bone.025.R_27",
			"rotation":[
				-0.06054995581507683,
				0.006917022168636322,
				0.00270218588411808,
				0.9981375336647034
			],
			"scale":[
				1,
				0.9999999403953552,
				1
			],
			"translation":[
				-1.0244548320770264e-08,
				0.3595658540725708,
				-5.988404154777527e-07
			]
		},
		{
			"children":[
				29
			],
			"name":"Bone.024.R_28",
			"rotation":[
				-0.7045425176620483,
				-0.0023412504233419895,
				0.03400297462940216,
				0.7088428735733032
			],
			"scale":[
				1.0000001192092896,
				1.0000001192092896,
				1
			],
			"translation":[
				7.031485438346863e-08,
				0.7074283957481384,
				8.265487849712372e-08
			]
		},
		{
			"children":[
				30
			],
			"name":"Bone.023.R_29",
			"rotation":[
				0.02510499395430088,
				0.0018174397991970181,
				-0.029764099046587944,
				0.999239981174469
			],
			"scale":[
				1,
				0.9999998807907104,
				1
			],
			"translation":[
				4.470348358154297e-08,
				0.6899896860122681,
				3.5297125577926636e-07
			]
		},
		{
			"children":[
				31
			],
			"name":"Bone.022.R_30",
			"rotation":[
				0.20512376725673676,
				-0.005937307141721249,
				0.02053651213645935,
				0.9785025715827942
			],
			"scale":[
				0.9999999403953552,
				0.9999999403953552,
				1
			],
			"translation":[
				-9.73232090473175e-08,
				0.5087978839874268,
				6.407499313354492e-07
			]
		},
		{
			"children":[
				32
			],
			"name":"Bone.006.R_31",
			"rotation":[
				0.15467147529125214,
				-0.07650260627269745,
				-0.012031910009682178,
				0.9849260449409485
			],
			"scale":[
				1,
				0.9999999403953552,
				0.9999998807907104
			],
			"translation":[
				-6.332993507385254e-08,
				0.680179238319397,
				3.948807716369629e-07
			]
		},
		{
			"children":[
				33
			],
			"name":"Bone.005.R_32",
			"rotation":[
				-0.4932495057582855,
				0.5127235651016235,
				-0.4794671833515167,
				0.5137419700622559
			],
			"scale":[
				0.9999999403953552,
				0.9999998807907104,
				0.9999998807907104
			],
			"translation":[
				8.717179298400879e-07,
				0.7103648781776428,
				-1.30385160446167e-07
			]
		},
		{
			"children":[
				34
			],
			"name":"Bone.004.R_33",
			"rotation":[
				-0.005103422794491053,
				-0.017673233523964882,
				0.6032860279083252,
				0.7973127365112305
			],
			"scale":[
				0.9999999403953552,
				0.9999999403953552,
				1
			],
			"translation":[
				-1.7316665434918832e-08,
				1.178022027015686,
				4.284083843231201e-08
			]
		},
		{
			"children":[
				35
			],
			"name":"Bone.003.R_34",
			"rotation":[
				0.07168659567832947,
				-0.00014244610792957246,
				0.003276504809036851,
				0.9974218010902405
			],
			"scale":[
				0.9999999403953552,
				1,
				1
			],
			"translation":[
				-2.2351741790771484e-08,
				1.7391964197158813,
				7.450580596923828e-09
			]
		},
		{
			"children":[
				36
			],
			"name":"Bone.002.R_35",
			"rotation":[
				-0.08809690922498703,
				0.0002714953734539449,
				-0.009945305064320564,
				0.9960622191429138
			],
			"scale":[
				1.0000001192092896,
				1.0000001192092896,
				1
			],
			"translation":[
				-1.1175870895385742e-08,
				0.8511319160461426,
				2.1047890186309814e-07
			]
		},
		{
			"name":"Bone.012.R_36",
			"rotation":[
				0.22904624044895172,
				0.023190662264823914,
				0.012483102269470692,
				0.9730591773986816
			],
			"scale":[
				1,
				1,
				1.0000001192092896
			],
			"translation":[
				-5.960464477539062e-07,
				0.2502513527870178,
				7.003545761108398e-07
			]
		},
		{
			"children":[
				38
			],
			"name":"Bone.011.R_37",
			"rotation":[
				0.4785143733024597,
				0.05961713194847107,
				-0.02580816112458706,
				0.8756732940673828
			],
			"scale":[
				1.0000001192092896,
				1,
				1
			],
			"translation":[
				4.172325134277344e-07,
				0.288427472114563,
				7.152557373046875e-07
			]
		},
		{
			"children":[
				39
			],
			"name":"Bone.010.R_38",
			"rotation":[
				-0.6906129121780396,
				-0.04711566120386124,
				-0.13620010018348694,
				0.7087196111679077
			],
			"scale":[
				1,
				0.9999998211860657,
				1
			],
			"translation":[
				1.341104507446289e-06,
				0.7384026050567627,
				-7.450580596923828e-09
			]
		},
		{
			"name":"Bone.015.R_39",
			"rotation":[
				-0.07954197376966476,
				-0.0144295459613204,
				-0.22982342541217804,
				0.969869077205658
			],
			"scale":[
				0.9999998807907104,
				1,
				0.9999999403953552
			],
			"translation":[
				8.642673492431641e-07,
				0.27870839834213257,
				2.384185791015625e-07
			]
		},
		{
			"children":[
				41
			],
			"name":"Bone.014.R_40",
			"rotation":[
				-0.04310043528676033,
				0.011285655200481415,
				-0.12158311158418655,
				0.9915808439254761
			],
			"scale":[
				1,
				1,
				1.0000001192092896
			],
			"translation":[
				-5.960464477539063e-08,
				0.29704582691192627,
				-8.940696716308594e-08
			]
		},
		{
			"children":[
				42
			],
			"name":"Bone.013.R_41",
			"rotation":[
				0.13974769413471222,
				-0.030432939529418945,
				0.05106622725725174,
				0.9884010553359985
			],
			"scale":[
				0.9999999403953552,
				1,
				0.9999999403953552
			],
			"translation":[
				1.2814998626708984e-06,
				0.7384026050567627,
				-2.4586915969848633e-07
			]
		},
		{
			"name":"Bone.018.R_42",
			"rotation":[
				-0.011508811265230179,
				-0.004386063665151596,
				-0.24072277545928955,
				0.970515787601471
			],
			"scale":[
				0.9999999403953552,
				0.9999998807907104,
				1
			],
			"translation":[
				-1.1920928955078125e-07,
				0.33860504627227783,
				-2.384185791015625e-07
			]
		},
		{
			"children":[
				44
			],
			"name":"Bone.017.R_43",
			"rotation":[
				0.26815927028656006,
				-0.04283623397350311,
				-0.08555872738361359,
				0.9586111903190613
			],
			"scale":[
				0.9999999403953552,
				1,
				1
			],
			"translation":[
				8.046627044677734e-07,
				0.32770320773124695,
				5.960464477539063e-08
			]
		},
		{
			"children":[
				45
			],
			"name":"Bone.016.R_44",
			"rotation":[
				-0.19756396114826202,
				0.03000609390437603,
				0.018702661618590355,
				0.9796521663665771
			],
			"scale":[
				1,
				0.9999999403953552,
				0.9999999403953552
			],
			"translation":[
				4.470348358154297e-07,
				0.7384026050567627,
				5.21540641784668e-08
			]
		},
		{
			"name":"Bone.021.R_45",
			"rotation":[
				-0.01662360690534115,
				-0.010701949708163738,
				-0.22908419370651245,
				0.9732058048248291
			],
			"scale":[
				0.9999999403953552,
				1,
				0.9999999403953552
			],
			"translation":[
				5.066394805908203e-07,
				0.2378721982240677,
				-4.470348358154297e-08
			]
		},
		{
			"children":[
				47
			],
			"name":"Bone.020.R_46",
			"rotation":[
				-0.35515356063842773,
				0.01197835709899664,
				-0.18967102468013763,
				0.9152854084968567
			],
			"translation":[
				-8.940696716308594e-08,
				0.39568468928337097,
				-4.172325134277344e-07
			]
		},
		{
			"children":[
				48
			],
			"name":"Bone.019.R_47",
			"rotation":[
				0.4099126160144806,
				-0.03269412741065025,
				0.05006678029894829,
				0.9101626873016357
			],
			"scale":[
				1,
				1,
				0.9999999403953552
			],
			"translation":[
				1.2218952178955078e-06,
				0.7384030818939209,
				8.195638656616211e-08
			]
		},
		{
			"children":[
				40,
				43,
				46,
				49
			],
			"name":"Bone.009.R_48",
			"rotation":[
				0.03624795377254486,
				-0.012024937197566032,
				-0.06582442671060562,
				0.9971001148223877
			],
			"scale":[
				0.9999999403953552,
				0.9999999403953552,
				0.9999999403953552
			],
			"translation":[
				-8.940696716308594e-08,
				1.469096302986145,
				1.862645149230957e-07
			]
		},
		{
			"children":[
				50
			],
			"name":"Bone.008.R_49",
			"rotation":[
				-0.1769433468580246,
				0.04938782379031181,
				-0.19016288220882416,
				0.9644117951393127
			],
			"scale":[
				0.9999999403953552,
				0.9999998807907104,
				0.9999998211860657
			],
			"translation":[
				-1.0281801223754883e-06,
				1.577128291130066,
				3.0547380447387695e-07
			]
		},
		{
			"children":[
				51
			],
			"name":"Bone.007.R_50",
			"rotation":[
				-0.034088436514139175,
				0.00814602430909872,
				0.673639178276062,
				0.7382289171218872
			],
			"translation":[
				0,
				0.8511323928833008,
				2.1047890186309814e-07
			]
		},
		{
			"children":[
				37,
				52
			],
			"name":"Bone.001.R_51",
			"rotation":[
				-0.9966757297515869,
				0.006668100133538246,
				0.00013700590352527797,
				0.08119770884513855
			],
			"scale":[
				0.9999999403953552,
				0.9999999403953552,
				1.0000033378601074
			],
			"translation":[
				0.002083286875858903,
				1.8069323301315308,
				-0.052615318447351456
			]
		},
		{
			"name":"Bone.026.R_52",
			"rotation":[
				0.19168320298194885,
				-0.682281494140625,
				-0.18872414529323578,
				0.6798034310340881
			],
			"scale":[
				0.9999998807907104,
				0.9999998211860657,
				0.9999998807907104
			],
			"translation":[
				0.002083279425278306,
				1.8069332838058472,
				-0.05261525884270668
			]
		},
		{
			"name":"neutral_bone_53",
			"rotation":[
				-0.6702125668525696,
				1.0720873078184923e-08,
				-3.212214849668271e-08,
				0.742169201374054
			],
			"scale":[
				1,
				0.9999998807907104,
				1
			],
			"translation":[
				0.0020833066664636135,
				1.7941396236419678,
				0.07261144369840622
			]
		},
		{
			"children":[
				27,
				28,
				53,
				54,
				55
			],
			"name":"GLTF_created_0_rootJoint",
			"rotation":[
				-8.45466363585956e-09,
				1.5302427769370297e-08,
				3.32640720523969e-11,
				1
			],
			"scale":[
				1,
				0.9999999403953552,
				0.9999999403953552
			],
			"translation":[
				9.951122592610773e-09,
				4.3213367462158203e-07,
				2.421438694000244e-08
			]
		},
		{
			"mesh":1,
			"name":"Object_9",
			"skin":0
		},
		{
			"name":"Riebeck_Rig2_Traveler_Reiback_mesh_54"
		},
		{
			"children":[
				57,
				58,
				56
			],
			"name":"GLTF_created_0"
		},
		{
			"children":[
				59
			],
			"name":"Armature_55",
			"rotation":[
				0.050881050527095795,
				0,
				0,
				0.998704731464386
			],
			"scale":[
				0.34242337942123413,
				0.34242337942123413,
				0.3424234092235565
			],
			"translation":[
				0.002083296189084649,
				1.7941397428512573,
				0.07261145114898682
			]
		},
		{
			"mesh":2,
			"name":"Object_4"
		},
		{
			"children":[
				61
			],
			"name":"Banjo_0",
			"rotation":[
				0.9999997019767761,
				0,
				0,
				0.0007785122725181282
			],
			"scale":[
				1.0661908388137817,
				1.0661908388137817,
				1.0661908388137817
			],
			"translation":[
				0.024824073538184166,
				1.1204825639724731,
				0.41914108395576477
			]
		},
		{
			"children":[
				60,
				62
			],
			"name":"GLTF_SceneRootNode",
			"rotation":[
				0.70710688829422,
				0,
				0,
				0.7071066498756409
			]
		},
		{
			"children":[
				63
			],
			"name":"root"
		},
		{
			"children":[
				64
			],
			"name":"model",
			"rotation":[
				-0.48632821440696716,
				0.5133078098297119,
				0.5133078694343567,
				0.48632827401161194
			],
			"translation":[
				0.23269468545913696,
				0.17109693586826324,
				-0.10855168849229813
			]
		}
	],
	"materials":[
		{
			"doubleSided":true,
			"emissiveFactor":[
				1,
				1,
				1
			],
			"emissiveTexture":{
				"index":0
			},
			"name":"Stam",
			"normalTexture":{
				"index":1
			},
			"pbrMetallicRoughness":{
				"baseColorTexture":{
					"index":2
				},
				"metallicRoughnessTexture":{
					"index":3
				}
			}
		},
		{
			"doubleSided":true,
			"extensions":{
				"KHR_materials_specular":{
					"specularTexture":{
						"index":4
					}
				}
			},
			"name":"Riebeck",
			"normalTexture":{
				"index":5
			},
			"pbrMetallicRoughness":{
				"baseColorTexture":{
					"index":6
				},
				"metallicFactor":0,
				"metallicRoughnessTexture":{
					"index":7
				}
			}
		},
		{
			"doubleSided":true,
			"extensions":{
				"KHR_materials_clearcoat":{
					"clearcoatFactor":1,
					"clearcoatRoughnessFactor":0.03999999910593033
				},
				"KHR_materials_specular":{
					"specularTexture":{
						"index":8
					}
				}
			},
			"name":"Material.002",
			"normalTexture":{
				"index":9
			},
			"pbrMetallicRoughness":{
				"baseColorTexture":{
					"index":10
				},
				"metallicFactor":0,
				"roughnessFactor":0.5
			}
		}
	],
	"meshes":[
		{
			"name":"Object_0.001",
			"primitives":[
				{
					"attributes":{
						"POSITION":0,
						"NORMAL":1,
						"TEXCOORD_0":2
					},
					"indices":3,
					"material":0
				}
			]
		},
		{
			"name":"Object_1",
			"primitives":[
				{
					"attributes":{
						"POSITION":4,
						"NORMAL":5,
						"TEXCOORD_0":6,
						"TEXCOORD_1":7,
						"TEXCOORD_2":8,
						"TEXCOORD_3":9,
						"TEXCOORD_4":10,
						"JOINTS_0":11,
						"WEIGHTS_0":12
					},
					"indices":13,
					"material":1
				}
			]
		},
		{
			"name":"Object_0",
			"primitives":[
				{
					"attributes":{
						"POSITION":15,
						"NORMAL":16,
						"TEXCOORD_0":17,
						"TEXCOORD_1":18,
						"TEXCOORD_2":19
					},
					"indices":20,
					"material":2
				}
			]
		}
	],
	"textures":[
		{
			"sampler":0,
			"source":0
		},
		{
			"sampler":0,
			"source":1
		},
		{
			"sampler":0,
			"source":2
		},
		{
			"sampler":0,
			"source":3
		},
		{
			"sampler":0,
			"source":4
		},
		{
			"sampler":0,
			"source":5
		},
		{
			"sampler":0,
			"source":6
		},
		{
			"sampler":0,
			"source":7
		},
		{
			"sampler":0,
			"source":8
		},
		{
			"sampler":0,
			"source":9
		},
		{
			"sampler":0,
			"source":10
		}
	],
	"images":[
		{
			"mimeType":"image/png",
			"name":"Stam_emissive",
			"uri":"textures/Stam_emissive.png"
		},
		{
			"mimeType":"image/png",
			"name":"Stam_normal",
			"uri":"textures/Stam_normal.png"
		},
		{
			"mimeType":"image/png",
			"name":"Stam_baseColor",
			"uri":"textures/Stam_baseColor.png"
		},
		{
			"mimeType":"image/png",
			"name":"Stam_metallicRoughness",
			"uri":"textures/Stam_metallicRoughness.png"
		},
		{
			"mimeType":"image/png",
			"name":"Riebeck_specularf0",
			"uri":"textures/Riebeck_specularf0.png"
		},
		{
			"mimeType":"image/png",
			"name":"Riebeck_normal",
			"uri":"textures/Riebeck_normal.png"
		},
		{
			"mimeType":"image/png",
			"name":"Riebeck_baseColor",
			"uri":"textures/Riebeck_baseColor.png"
		},
		{
			"mimeType":"image/png",
			"name":"Riebeck_metallicRoughness",
			"uri":"textures/Riebeck_metallicRoughness.png"
		},
		{
			"mimeType":"image/png",
			"name":"Material.002_specularf0",
			"uri":"textures/Material.002_specularf0.png"
		},
		{
			"mimeType":"image/png",
			"name":"Material.002_normal",
			"uri":"textures/Material.002_normal.png"
		},
		{
			"mimeType":"image/png",
			"name":"Material.002_baseColor",
			"uri":"textures/Material.002_baseColor.png"
		}
	],
	"skins":[
		{
			"inverseBindMatrices":14,
			"joints":[
				56,
				27,
				11,
				10,
				9,
				8,
				7,
				6,
				5,
				4,
				3,
				26,
				25,
				24,
				14,
				13,
				12,
				17,
				16,
				15,
				20,
				19,
				18,
				23,
				22,
				21,
				28,
				53,
				37,
				36,
				35,
				34,
				33,
				32,
				31,
				30,
				29,
				52,
				51,
				50,
				40,
				39,
				38,
				43,
				42,
				41,
				46,
				45,
				44,
				49,
				48,
				47,
				54,
				55
			],
			"name":"GLTF_created_0"
		}
	],
	"accessors":[
		{
			"bufferView":0,
			"componentType":5126,
			"count":5201,
			"max":[
				1.0251458883285522,
				3.9072494506835938,
				1.5041584968566895
			],
			"min":[
				-0.9980461001396179,
				-3.6771602630615234,
				-0.9826605319976807
			],
			"type":"VEC3"
		},
		{
			"bufferView":1,
			"componentType":5126,
			"count":5201,
			"type":"VEC3"
		},
		{
			"bufferView":2,
			"componentType":5126,
			"count":5201,
			"type":"VEC2"
		},
		{
			"bufferView":3,
			"componentType":5123,
			"count":29520,
			"type":"SCALAR"
		},
		{
			"bufferView":4,
			"componentType":5126,
			"count":7941,
			"max":[
				1.0786612033843994,
				3.222292900085449,
				1.246440052986145
			],
			"min":[
				-0.5853390693664551,
				0.6135060787200928,
				-1.495537519454956
			],
			"type":"VEC3"
		},
		{
			"bufferView":5,
			"componentType":5126,
			"count":7941,
			"type":"VEC3"
		},
		{
			"bufferView":6,
			"componentType":5126,
			"count":7941,
			"type":"VEC2"
		},
		{
			"bufferView":7,
			"componentType":5126,
			"count":7941,
			"type":"VEC2"
		},
		{
			"bufferView":8,
			"componentType":5126,
			"count":7941,
			"type":"VEC2"
		},
		{
			"bufferView":9,
			"componentType":5126,
			"count":7941,
			"type":"VEC2"
		},
		{
			"bufferView":10,
			"componentType":5126,
			"count":7941,
			"type":"VEC2"
		},
		{
			"bufferView":11,
			"componentType":5121,
			"count":7941,
			"type":"VEC4"
		},
		{
			"bufferView":12,
			"componentType":5126,
			"count":7941,
			"type":"VEC4"
		},
		{
			"bufferView":13,
			"componentType":5123,
			"count":38775,
			"type":"SCALAR"
		},
		{
			"bufferView":14,
			"componentType":5126,
			"count":54,
			"type":"MAT4"
		},
		{
			"bufferView":15,
			"componentType":5126,
			"count":3690,
			"max":[
				0.5537670850753784,
				0.16472269594669342,
				0.07154945284128189
			],
			"min":[
				-0.5537670850753784,
				-0.16472269594669342,
				-0.07154945284128189
			],
			"type":"VEC3"
		},
		{
			"bufferView":16,
			"componentType":5126,
			"count":3690,
			"type":"VEC3"
		},
		{
			"bufferView":17,
			"componentType":5126,
			"count":3690,
			"type":"VEC2"
		},
		{
			"bufferView":18,
			"componentType":5126,
			"count":3690,
			"type":"VEC2"
		},
		{
			"bufferView":19,
			"componentType":5126,
			"count":3690,
			"type":"VEC2"
		},
		{
			"bufferView":20,
			"componentType":5123,
			"count":6222,
			"type":"SCALAR"
		}
	],
	"bufferViews":[
		{
			"buffer":0,
			"byteLength":62412,
			"byteOffset":0,
			"target":34962
		},
		{
			"buffer":0,
			"byteLength":62412,
			"byteOffset":62412,
			"target":34962
		},
		{
			"buffer":0,
			"byteLength":41608,
			"byteOffset":124824,
			"target":34962
		},
		{
			"buffer":0,
			"byteLength":59040,
			"byteOffset":166432,
			"target":34963
		},
		{
			"buffer":0,
			"byteLength":95292,
			"byteOffset":225472,
			"target":34962
		},
		{
			"buffer":0,
			"byteLength":95292,
			"byteOffset":320764,
			"target":34962
		},
		{
			"buffer":0,
			"byteLength":63528,
			"byteOffset":416056,
			"target":34962
		},
		{
			"buffer":0,
			"byteLength":63528,
			"byteOffset":479584,
			"target":34962
		},
		{
			"buffer":0,
			"byteLength":63528,
			"byteOffset":543112,
			"target":34962
		},
		{
			"buffer":0,
			"byteLength":63528,
			"byteOffset":606640,
			"target":34962
		},
		{
			"buffer":0,
			"byteLength":63528,
			"byteOffset":670168,
			"target":34962
		},
		{
			"buffer":0,
			"byteLength":31764,
			"byteOffset":733696,
			"target":34962
		},
		{
			"buffer":0,
			"byteLength":127056,
			"byteOffset":765460,
			"target":34962
		},
		{
			"buffer":0,
			"byteLength":77550,
			"byteOffset":892516,
			"target":34963
		},
		{
			"buffer":0,
			"byteLength":3456,
			"byteOffset":970068
		},
		{
			"buffer":0,
			"byteLength":44280,
			"byteOffset":973524,
			"target":34962
		},
		{
			"buffer":0,
			"byteLength":44280,
			"byteOffset":1017804,
			"target":34962
		},
		{
			"buffer":0,
			"byteLength":29520,
			"byteOffset":1062084,
			"target":34962
		},
		{
			"buffer":0,
			"byteLength":29520,
			"byteOffset":1091604,
			"target":34962
		},
		{
			"buffer":0,
			"byteLength":29520,
			"byteOffset":1121124,
			"target":34962
		},
		{
			"buffer":0,
			"byteLength":12444,
			"byteOffset":1150644,
			"target":34963
		}
	],
	"samplers":[
		{
			"magFilter":9729,
			"minFilter":9987
		}
	],
	"buffers":[
		{
			"byteLength":1163088,
			"uri":"character.bin"
		}
	]
}
